# xmcd
#
# Track frame offsets:
#	150
#	13330
#	33549
#	44043
#	56412
#	69578
#	88304
#	102326
#	110804
#	121175
#	131287
#	142100
#
# Disc length: 2063 seconds
#
# Revision: 0
# Processed by: cddbd v1.5PL3 Copyright (c) Steve Scherf et al.
# Submitted via: dBpowerAMP V4.0
#
DISCID=b5080d0c
DTITLE=Charlie Rich - The Silver Fox
DYEAR=1900
DGENRE=Country
TTITLE0=Behind Closed Doors
TTITLE1=Big Boss Man
TTITLE2=CC Rider
TTITLE3=Big Man
TTITLE4=I Take It On Home
TTITLE5=Lets Take It Nice And Easy
TTITLE6=Midnight Blue
TTITLE7=Rebound
TTITLE8=Unchained Melody
TTITLE9=That's How Much I Love You
TTITLE10=Who Will The Next Fool Be
TTITLE11=Stay
EXTD=
EXTT0=
EXTT1=
EXTT2=
EXTT3=
EXTT4=
EXTT5=
EXTT6=
EXTT7=
EXTT8=
EXTT9=
EXTT10=
EXTT11=
PLAYORDER=
